# xmcd
# 
# Track frame offsets:
#     150
#     30270
#     50707
#     76039
#     106133
#     121539
#     147608
#     171013
#     196445
#     219857
# 
# Disc length: 3202
# 
# Revision: 4
# Processed by: cddbd v1.5.2PL0 Copyright (c) Steve Scherf et al.
# Submitted via: BonkEnc v1.0.8
# 
DISCID=7a0c800a
DTITLE=Colosseum - Tomorrow's Blues
DYEAR=2003
DGENRE=Blues
TTITLE0=Tomorrow's Blues
TTITLE1=Come Right Back
TTITLE2=In The Heat Of The Night
TTITLE3=Hard Times Rising
TTITLE4=Arena In The Sun
TTITLE5=Thief In The Night
TTITLE6=Take The Dark Times With The Sun
TTITLE7=The Net Man
TTITLE8=Leisure Complex Blues
TTITLE9=No Demons
EXTD=ID3G: 0
EXTT0=
EXTT1=
EXTT2=
EXTT3=
EXTT4=
EXTT5=
EXTT6=
EXTT7=
EXTT8=
EXTT9=
PLAYORDER=
